{"title":"Tool - Lateralus - Custom Remaster by MC Lurken 16-bit 44.1kHz f","uid":8086539,"size":520859320,"categoryP":"audio","categoryS":"flac","magnet":"?xt=urn:btih:e46f4e02f39500806e0e5d3236bf67479800bb46&amp;dn=Tool+-+Lateralus+-+Custom+Remaster+by+MC+Lurken+16-bit+44.1kHz+f&amp;tr=udp%3A%2F%2Ftracker.openbittorrent.com%3A80&amp;tr=udp%3A%2F%2Fopen.demonii.com%3A1337&amp;tr=udp%3A%2F%2Ftracker.coppersurfer.tk%3A6969&amp;tr=udp%3A%2F%2Fexodus.desync.com%3A6969","seeders":0,"leechers":1,"uploader":"beavis39","files":-1,"time":1359592249,"description":"Tool - Lateralus - Custom Remaster by MC Lurken\n\n\n1 - The Grudge\n2 - Eon Blue Apocalypse\n3 - The Patient\n4 - Mantra\n5 - Schism\n6 - Parabol\n7 - Parabola\n8 - Ticks &amp; Leeches\n9 - Lateralus\n10 - Disposition\n11 - Reflection\n12 - Triad\n13 - Faaip de Oiad\n\n\nSetup:\n-HP G72-250US\n-Intel Core i3 M350 2.27GHz\n-8Gb PC3-10700 RAM\n-Win7 64-bit SP1\n-SB X-Fi Surround 5.1\n\n\nProcess:\n-Original 24-bit/44.1kHz files HDCD joined in Wavelab 6\n-Remove DC offset and save as 64-bit float/44.1kHz\n-Resample to 384kHz in Wavelab w/crystal resampler ultra(slow) relax background priority\n-Create new 64-bit/384kHz master recording in Wavelab (5.510db recording gain)\n\n\nAs reported in Wavelab:\n-Original 24-bit/44.1kHz: Apparent Bit Resolution = 20, Peak = -6.021db\n-With DC Offset Removed: Apparent Bit Resolution = 20, Peak = -6.020db\n-64-bit/384kHz Recording: Apparent Bit Resolution = 39, Peak = 0.226db\n\n\n-Resample new 64-bit/384kHz master recording to 64-bit/44.1kHz in Wavelab w/crystal resampler ultra(slow) relax background priority\n-Apply MBIT+ 16-bit Dither in Wavelab w/Izotope Ozone 5 VST Plugin\n-Flac encode level 0 with Trader's Little Helper\n-Tag and pic with xrecode II\n\n\nfoobar2000 1.2.1 / Dynamic Range Meter 1.1.1\nlog date: 2013-01-29 22:34:14\n\n--------------------------------------------------------------------------------\nAnalyzed: ? / ?\n--------------------------------------------------------------------------------\n\nDR         Peak         RMS     Duration Track\n--------------------------------------------------------------------------------\nDR9       -0.21 dB   -11.58 dB      8:36 ?-01 - The Grudge\nDR17      -8.01 dB   -30.15 dB      1:05 ?-02 - Eon Blue Apocalypse\nDR9       -0.34 dB   -13.11 dB      7:14 ?-03 - The Patient\nDR11      -9.13 dB   -23.32 dB      1:13 ?-04 - Mantra\nDR9       -0.05 dB   -12.32 dB      6:48 ?-05 - Schism\nDR9       -2.78 dB   -22.17 dB      3:04 ?-06 - Parabol\nDR9       -0.26 dB   -11.36 dB      6:04 ?-07 - Parabola\nDR9       -0.23 dB   -12.32 dB      8:10 ?-08 - Ticks &amp; Leeches\nDR9       -0.24 dB   -11.62 dB      9:24 ?-09 - Lateralus\nDR12      -3.03 dB   -19.18 dB      4:46 ?-10 - Disposition\nDR10      -0.48 dB   -12.73 dB     11:08 ?-11 - Reflection\nDR9       -0.21 dB   -13.10 dB      8:47 ?-12 - Triad\nDR10      -0.32 dB   -14.79 dB      2:39 ?-13 - Faaip de Oiad\n--------------------------------------------------------------------------------\n\nNumber of tracks:  13\nOfficial DR value: DR10\n\nSamplerate:        44100 Hz\nChannels:          2\nBits per sample:   16\nBitrate:           1411 kbps\nCodec:             PCM\n\n\n\nenjoy :)","torrent":{"xt":"urn:btih:e46f4e02f39500806e0e5d3236bf67479800bb46","amp;dn":"Tool+-+Lateralus+-+Custom+Remaster+by+MC+Lurken+16-bit+44.1kHz+f","amp;tr":["udp%3A%2F%2Ftracker.openbittorrent.com%3A80","udp%3A%2F%2Fopen.demonii.com%3A1337","udp%3A%2F%2Ftracker.coppersurfer.tk%3A6969","udp%3A%2F%2Fexodus.desync.com%3A6969"],"infoHash":"e46f4e02f39500806e0e5d3236bf67479800bb46","infoHashBuffer":{"type":"Buffer","data":[228,111,78,2,243,149,0,128,110,14,93,50,54,191,103,71,152,0,187,70]},"announce":[],"urlList":[]}}